<?xml version="1.0" standalone="no"?>
<!DOCTYPE svg PUBLIC "-//W3C//DTD SVG 20010904//EN"
 "http://www.w3.org/TR/2001/REC-SVG-20010904/DTD/svg10.dtd">
<svg version="1.0" xmlns="http://www.w3.org/2000/svg"
 width="260.000000pt" height="260.000000pt" viewBox="0 0 260.000000 260.000000"
 preserveAspectRatio="xMidYMid meet">
<metadata>
Created by potrace 1.11, written by Peter Selinger 2001-2013
</metadata>
<g transform="translate(0.000000,260.000000) scale(0.100000,-0.100000)"
fill="#000000" stroke="none">
<path d="M1277 2584 c-1 -1 -42 -5 -92 -8 -245 -16 -533 -133 -715 -290 -56
-49 -155 -151 -186 -193 -16 -21 -32 -40 -36 -43 -3 -3 -32 -48 -62 -100 -398
-673 -110 -1540 613 -1845 84 -36 254 -81 336 -90 60 -7 266 -7 315 0 446 60
822 334 1010 739 83 180 118 338 118 539 -2 529 -308 987 -796 1192 -84 35
-211 71 -282 80 -57 8 -220 21 -223 19z m183 -94 c312 -38 624 -227 813 -492
92 -129 151 -256 193 -417 33 -124 41 -349 18 -485 -62 -374 -296 -692 -644
-878 -69 -37 -230 -95 -290 -104 -19 -3 -38 -8 -41 -10 -3 -2 -39 -6 -80 -10
-469 -43 -892 156 -1148 540 -97 146 -171 352 -188 525 -41 414 113 798 427
1062 197 165 434 260 685 276 50 3 91 6 92 7 3 3 83 -4 163 -14z"/>
<path d="M1355 1683 c-9 -32 -18 -65 -20 -73 -3 -15 -104 -390 -166 -619 -17
-62 -27 -117 -22 -121 4 -5 21 -10 37 -12 27 -3 31 1 43 42 11 37 131 482 203
752 l18 67 -22 6 c-11 4 -29 9 -38 11 -13 4 -20 -8 -33 -53z"/>
<path d="M789 1473 c-86 -87 -159 -167 -163 -177 -5 -15 27 -53 156 -183 89
-89 166 -163 170 -163 14 0 48 34 48 48 0 7 -63 76 -140 152 l-139 139 144
145 145 145 -24 26 c-13 14 -27 25 -32 25 -5 0 -79 -71 -165 -157z"/>
<path d="M1600 1605 l-24 -26 144 -144 145 -145 -145 -145 -144 -144 24 -26
c13 -14 27 -24 32 -23 22 8 328 322 328 337 0 15 -306 331 -328 339 -4 1 -19
-9 -32 -23z"/>
</g>
</svg>
